# xmcd CD database file
#
# Track frame offsets:
#	150
#	21739
#	43113
#	59655
#	79835
#	97055
#	113258
#	135022
#	154490
#	166860
#
# Disc length: 2553 seconds
#
# Revision: 2
# Processed by: cddbd v1.5.2PL0 Copyright (c) Steve Scherf et al.
# Submitted via: CDex 1.70beta2
#
DISCID=7f09f70a
DTITLE=Karat - Fünfte Jahreszeit
DYEAR=1987
DGENRE=Rock
TTITLE0=Fetzen aus Samt
TTITLE1=Fünfte Jahreszeit
TTITLE2=Der Fahrradverkäufer
TTITLE3=In deiner Galerie
TTITLE4=Hab den Mond mit der Hand berührt
TTITLE5=Der Doppelgänger
TTITLE6=Aus zweiter Hand
TTITLE7=Er kam, sah und siegte
TTITLE8=Der Liebe Fluch
TTITLE9=Die Glocke Zweitausend
EXTD=YEAR: 1987
EXTT0=
EXTT1=
EXTT2=
EXTT3=
EXTT4=
EXTT5=
EXTT6=
EXTT7=
EXTT8=
EXTT9=
PLAYORDER=
